<svg width="16" height="17" viewBox="0 0 16 17" fill="none" xmlns="http://www.w3.org/2000/svg">
<g clip-path="url(#clip0_0_1295)">
<path d="M8 2.32344C10.1375 2.32344 10.3906 2.33281 11.2313 2.37031C12.0125 2.40469 12.4344 2.53594 12.7156 2.64531C13.0875 2.78906 13.3563 2.96406 13.6344 3.24219C13.9156 3.52344 14.0875 3.78906 14.2313 4.16094C14.3406 4.44219 14.4719 4.86719 14.5063 5.64531C14.5438 6.48906 14.5531 6.74219 14.5531 8.87656C14.5531 11.0141 14.5438 11.2672 14.5063 12.1078C14.4719 12.8891 14.3406 13.3109 14.2313 13.5922C14.0875 13.9641 13.9125 14.2328 13.6344 14.5109C13.3531 14.7922 13.0875 14.9641 12.7156 15.1078C12.4344 15.2172 12.0094 15.3484 11.2313 15.3828C10.3875 15.4203 10.1344 15.4297 8 15.4297C5.8625 15.4297 5.60938 15.4203 4.76875 15.3828C3.9875 15.3484 3.56563 15.2172 3.28438 15.1078C2.9125 14.9641 2.64375 14.7891 2.36563 14.5109C2.08438 14.2297 1.9125 13.9641 1.76875 13.5922C1.65938 13.3109 1.52813 12.8859 1.49375 12.1078C1.45625 11.2641 1.44688 11.0109 1.44688 8.87656C1.44688 6.73906 1.45625 6.48594 1.49375 5.64531C1.52813 4.86406 1.65938 4.44219 1.76875 4.16094C1.9125 3.78906 2.0875 3.52031 2.36563 3.24219C2.64688 2.96094 2.9125 2.78906 3.28438 2.64531C3.56563 2.53594 3.99063 2.40469 4.76875 2.37031C5.60938 2.33281 5.8625 2.32344 8 2.32344ZM8 0.882812C5.82813 0.882812 5.55625 0.892187 4.70313 0.929688C3.85313 0.967188 3.26875 1.10469 2.7625 1.30156C2.23438 1.50781 1.7875 1.77969 1.34375 2.22656C0.896875 2.67031 0.625 3.11719 0.41875 3.64219C0.221875 4.15156 0.084375 4.73281 0.046875 5.58281C0.009375 6.43906 0 6.71094 0 8.88281C0 11.0547 0.009375 11.3266 0.046875 12.1797C0.084375 13.0297 0.221875 13.6141 0.41875 14.1203C0.625 14.6484 0.896875 15.0953 1.34375 15.5391C1.7875 15.9828 2.23438 16.2578 2.75938 16.4609C3.26875 16.6578 3.85 16.7953 4.7 16.8328C5.55313 16.8703 5.825 16.8797 7.99688 16.8797C10.1688 16.8797 10.4406 16.8703 11.2938 16.8328C12.1438 16.7953 12.7281 16.6578 13.2344 16.4609C13.7594 16.2578 14.2063 15.9828 14.65 15.5391C15.0938 15.0953 15.3688 14.6484 15.5719 14.1234C15.7688 13.6141 15.9063 13.0328 15.9438 12.1828C15.9813 11.3297 15.9906 11.0578 15.9906 8.88594C15.9906 6.71406 15.9813 6.44219 15.9438 5.58906C15.9063 4.73906 15.7688 4.15469 15.5719 3.64844C15.375 3.11719 15.1031 2.67031 14.6563 2.22656C14.2125 1.78281 13.7656 1.50781 13.2406 1.30469C12.7313 1.10781 12.15 0.970313 11.3 0.932813C10.4438 0.892188 10.1719 0.882812 8 0.882812Z" fill="#18191A"/>
<path d="M8 4.77344C5.73125 4.77344 3.89062 6.61406 3.89062 8.88281C3.89062 11.1516 5.73125 12.9922 8 12.9922C10.2688 12.9922 12.1094 11.1516 12.1094 8.88281C12.1094 6.61406 10.2688 4.77344 8 4.77344ZM8 11.5484C6.52813 11.5484 5.33437 10.3547 5.33437 8.88281C5.33437 7.41094 6.52813 6.21719 8 6.21719C9.47188 6.21719 10.6656 7.41094 10.6656 8.88281C10.6656 10.3547 9.47188 11.5484 8 11.5484Z" fill="#18191A"/>
<path d="M13.2312 4.61074C13.2312 5.14199 12.8 5.57012 12.2719 5.57012C11.7406 5.57012 11.3125 5.13887 11.3125 4.61074C11.3125 4.07949 11.7438 3.65137 12.2719 3.65137C12.8 3.65137 13.2312 4.08262 13.2312 4.61074Z" fill="#18191A"/>
</g>
<defs>
<clipPath id="clip0_0_1295">
<rect width="16" height="16" fill="white" transform="translate(0 0.882812)"/>
</clipPath>
</defs>
</svg>
