<svg width="16" height="17" viewBox="0 0 16 17" fill="none" xmlns="http://www.w3.org/2000/svg">
<g clip-path="url(#clip0_0_1293)">
<path d="M14.8156 0.882812H1.18125C0.528125 0.882812 0 1.39844 0 2.03594V15.7266C0 16.3641 0.528125 16.8828 1.18125 16.8828H14.8156C15.4688 16.8828 16 16.3641 16 15.7297V2.03594C16 1.39844 15.4688 0.882812 14.8156 0.882812ZM4.74687 14.5172H2.37188V6.87969H4.74687V14.5172ZM3.55938 5.83906C2.79688 5.83906 2.18125 5.22344 2.18125 4.46406C2.18125 3.70469 2.79688 3.08906 3.55938 3.08906C4.31875 3.08906 4.93437 3.70469 4.93437 4.46406C4.93437 5.22031 4.31875 5.83906 3.55938 5.83906ZM13.6344 14.5172H11.2625V10.8047C11.2625 9.92031 11.2469 8.77969 10.0281 8.77969C8.79375 8.77969 8.60625 9.74531 8.60625 10.7422V14.5172H6.2375V6.87969H8.5125V7.92344H8.54375C8.85938 7.32344 9.63438 6.68906 10.7875 6.68906C13.1906 6.68906 13.6344 8.27031 13.6344 10.3266V14.5172Z" fill="#18191A"/>
</g>
<defs>
<clipPath id="clip0_0_1293">
<rect width="16" height="16" fill="white" transform="translate(0 0.882812)"/>
</clipPath>
</defs>
</svg>
