<svg width="16" height="17" viewBox="0 0 16 17" fill="none" xmlns="http://www.w3.org/2000/svg">
<g clip-path="url(#clip0_0_1292)">
<path d="M5.03344 15.3828C11.0697 15.3828 14.3722 10.3806 14.3722 6.04405C14.3722 5.90343 14.3691 5.75968 14.3628 5.61905C15.0052 5.15445 15.5597 4.57898 16 3.91968C15.4017 4.18588 14.7664 4.35973 14.1159 4.4353C14.8009 4.02475 15.3137 3.37979 15.5594 2.61999C14.915 3.00185 14.2104 3.27122 13.4756 3.41655C12.9806 2.89052 12.326 2.54222 11.6131 2.42551C10.9003 2.3088 10.1688 2.43018 9.53183 2.77088C8.89486 3.11157 8.38787 3.65262 8.08923 4.31035C7.7906 4.96809 7.71695 5.70589 7.87969 6.40968C6.575 6.34421 5.29862 6.00528 4.13332 5.41488C2.96802 4.82447 1.9398 3.99577 1.11531 2.98249C0.696266 3.70497 0.568038 4.55991 0.756687 5.37354C0.945337 6.18717 1.43671 6.89844 2.13094 7.3628C1.60975 7.34626 1.09998 7.20593 0.64375 6.95343V6.99405C0.643283 7.75225 0.905399 8.4872 1.38554 9.07399C1.86568 9.66078 2.53422 10.0632 3.2775 10.2128C2.7947 10.3449 2.28799 10.3641 1.79656 10.2691C2.0063 10.9211 2.41438 11.4914 2.96385 11.9004C3.51331 12.3093 4.17675 12.5365 4.86156 12.5503C3.69895 13.4636 2.26278 13.9589 0.784375 13.9566C0.522191 13.9562 0.260266 13.9401 0 13.9084C1.5019 14.872 3.24902 15.3837 5.03344 15.3828Z" fill="#18191A"/>
</g>
<defs>
<clipPath id="clip0_0_1292">
<rect width="16" height="16" fill="white" transform="translate(0 0.882812)"/>
</clipPath>
</defs>
</svg>
