<svg width="16" height="17" viewBox="0 0 16 17" fill="none" xmlns="http://www.w3.org/2000/svg">
<path d="M15.8406 5.68301C15.8406 5.68301 15.6844 4.57988 15.2031 4.09551C14.5938 3.45801 13.9125 3.45488 13.6 3.41738C11.3625 3.25488 8.00313 3.25488 8.00313 3.25488H7.99687C7.99687 3.25488 4.6375 3.25488 2.4 3.41738C2.0875 3.45488 1.40625 3.45801 0.796875 4.09551C0.315625 4.57988 0.1625 5.68301 0.1625 5.68301C0.1625 5.68301 0 6.97988 0 8.27363V9.48613C0 10.7799 0.159375 12.0768 0.159375 12.0768C0.159375 12.0768 0.315625 13.1799 0.79375 13.6643C1.40313 14.3018 2.20313 14.2799 2.55938 14.3486C3.84063 14.4705 8 14.508 8 14.508C8 14.508 11.3625 14.5018 13.6 14.3424C13.9125 14.3049 14.5938 14.3018 15.2031 13.6643C15.6844 13.1799 15.8406 12.0768 15.8406 12.0768C15.8406 12.0768 16 10.783 16 9.48613V8.27363C16 6.97988 15.8406 5.68301 15.8406 5.68301ZM6.34688 10.958V6.46113L10.6687 8.71738L6.34688 10.958Z" fill="#18191A"/>
</svg>
